<?xml version="1.0" encoding="utf-8"?>
<!-- Generator: Adobe Illustrator 19.2.1, SVG Export Plug-In . SVG Version: 6.00 Build 0)  -->
<svg version="1.1" id="Слой_1" xmlns="http://www.w3.org/2000/svg" xmlns:xlink="http://www.w3.org/1999/xlink" x="0px" y="0px"
	 viewBox="0 0 390.5 97" style="enable-background:new 0 0 390.5 97;" xml:space="preserve">
<style type="text/css">
	.st0{fill:#FFFFFF;}
</style>
<g id="Слой_x0020_1">
	<g id="_1069423568">
		<path class="st0" d="M178.7,46.4H176V7.3l0,0l-20.7,39.1h-2.7L131.9,7.3l0,0v39.1h-2.7V3.5h4L154,42.9l20.8-39.4h3.9V46.4z
			 M225.4,46.4h-3.1L216,32.6h-23.4l-6.3,13.8h-3.1l19.5-42.9h3.1L225.4,46.4z M215,30.1L204.3,6.5l-10.7,23.6H215z M265.5,46.4
			h-2.7c-0.9-0.9-1.3-2.4-1.3-4.5c0-0.6,0-1.6,0.1-2.9c0.1-1.4,0.1-2.4,0.1-3c0-2.9-0.6-5-1.9-6.3c-1.7-1.9-4.8-2.8-9.2-2.8h-18.9
			v19.5H229V3.5h21.7c9.6,0,14.3,3.8,14.3,11.3c0,2.6-0.8,4.9-2.4,6.9c-1.6,1.9-3.7,3.2-6.3,3.8v0.1c3.4,0.5,5.7,1.8,6.8,4.2
			c0.8,1.6,1.1,4.1,1.1,7.6v1.5C264.3,42.4,264.7,44.9,265.5,46.4z M262.3,14.6c0-5.9-3.8-8.8-11.4-8.8h-19.2v18.6h18.5
			C258.2,24.4,262.3,21.1,262.3,14.6z M310.7,46.4h-3.8L285,22.9l-10.8,8.7v14.8h-2.7V3.5h2.7v24.6l30.6-24.6h4.4l-22,17.7
			L310.7,46.4z M347.8,46.4h-33.9V3.5h33.5v2.3h-30.8v17.1h29.6v2.3h-29.6V44h31.2V46.4z M387.2,5.8h-17.1v40.6h-2.7V5.8h-17.1V3.5
			h37V5.8z"/>
		<path class="st0" d="M178.7,94.1H176V55.1l0,0l-20.7,39.1h-2.7l-20.6-39.1l0,0v39.1h-2.7V51.2h4L154,90.7l20.8-39.4h3.9V94.1z
			 M224.1,78.3c0,11.2-6.3,16.8-18.8,16.8c-12.5,0-18.8-5.6-18.8-16.8v-27h2.7v26.9c0,5.2,1.4,8.9,4.2,11.3
			c2.6,2.2,6.5,3.3,11.8,3.3c5.3,0,9.2-1.1,11.8-3.3c2.8-2.4,4.2-6.1,4.2-11.3V51.2h2.7V78.3z M266.5,82.9c0,4.3-1.8,7.5-5.5,9.7
			c-3,1.7-6.8,2.5-11.5,2.5c-12.9,0-19.3-5-19.3-15.1h2.7c0.1,8.5,5.5,12.8,16.3,12.8c3.8,0,7-0.6,9.5-1.9c3.2-1.7,4.8-4.2,4.8-7.7
			c0-4-2.7-6.7-8.3-8.3c-5.1-1.1-10.3-2.2-15.4-3.4c-5.5-1.9-8.3-5.2-8.3-10.1c0-3.9,1.8-6.9,5.4-8.8c2.8-1.6,6.4-2.3,10.7-2.3
			c11.6,0,17.5,4.4,17.8,13.1h-2.7c-0.5-7.2-5.2-10.7-14.3-10.7c-9.2,0-13.7,2.9-13.7,8.8c0,4,2.7,6.8,8.3,8.2
			c5.1,1,10.2,2.1,15.4,3.2C263.7,74.6,266.5,78,266.5,82.9z M274,94.1h-2.7V51.2h2.7V94.1z M321.5,77.8c-0.6,5.2-2.9,9.4-7.1,12.6
			c-3.9,3.1-8.5,4.6-13.8,4.6c-6.8,0-12.2-2-16.4-6.2c-4.1-4.1-6.2-9.5-6.2-16.3c0-6.5,2.1-11.9,6.4-16.1c4.3-4.2,9.7-6.3,16.2-6.3
			c5.1,0,9.4,1.2,12.8,3.5c3.8,2.5,6.2,6.1,7.3,10.9H318c-1-3.9-3.1-6.9-6.5-9.1c-3.1-2-6.7-3-10.9-3c-5.7,0-10.5,1.9-14.2,5.7
			c-3.8,3.8-5.6,8.6-5.6,14.3c0,6,1.8,10.8,5.5,14.5c3.6,3.7,8.4,5.6,14.4,5.6c4.7,0,8.7-1.3,12-4c3.3-2.7,5.3-6.3,6.1-10.9H321.5z"
			/>
		<path class="st0" d="M99.3,48.4C98.7,61,93.4,72.3,85.1,80.6c-8.8,8.9-20.9,14.3-34.4,14.3c-13.4,0-25.6-5.5-34.4-14.3
			C8,72.3,2.7,61,2.1,48.4h2.4C5.2,60.3,10.2,71,18,78.9c8.4,8.4,19.9,13.6,32.7,13.6S75,87.3,83.3,78.9
			c7.8-7.9,12.9-18.6,13.5-30.5H99.3z"/>
		<path class="st0" d="M50.7,43.6L73.3,4.1L74,3l1,0.6C82.5,8,88.6,14.2,92.8,21.6s6.5,15.7,6.5,24.5c0,0.8,0,1.6-0.1,2.4h-2.5
			c0.1-0.8,0.1-1.6,0.1-2.4c0-8.3-2.2-16.3-6.2-23.2c-3.8-6.6-9.2-12.3-15.8-16.4c-7.7,13.4-15.4,26.8-23.1,40.2h-2.1L26.5,6.4
			c-6.6,4.1-12,9.8-15.8,16.4c-4,6.9-6.2,14.9-6.2,23.2c0,0.8,0,1.6,0.1,2.4H2.1c-0.1-0.8-0.1-1.6-0.1-2.4c0-8.8,2.3-17.1,6.5-24.5
			S18.9,8,26.4,3.6L27.5,3l0.6,1.1L50.7,43.6z"/>
	</g>
</g>
</svg>
