<?xml version="1.0" encoding="utf-8"?>
<!-- Generator: Adobe Illustrator 19.2.1, SVG Export Plug-In . SVG Version: 6.00 Build 0)  -->
<svg version="1.1" id="Слой_1" xmlns="http://www.w3.org/2000/svg" xmlns:xlink="http://www.w3.org/1999/xlink" x="0px" y="0px"
	 viewBox="0 0 385.1 92.1" style="enable-background:new 0 0 385.1 92.1;" xml:space="preserve">
<style type="text/css">
	.st0{fill:#21201F;}
	.st1{fill:#E24D3C;}
</style>
<g id="Слой_x0020_1">
	<g id="_-1435479208">
		<path class="st0" d="M176.5,43.3h-2.7V4.3l0,0l-20.7,39.1h-2.7L129.8,4.3l0,0v39.1H127V0.5h4l20.7,39.4l20.8-39.4h3.9V43.3z
			 M223.3,43.3h-3.1l-6.3-13.8h-23.4l-6.3,13.8h-3.1l19.5-42.9h3.1L223.3,43.3z M212.9,27.1L202.2,3.5l-10.7,23.6H212.9z
			 M263.3,43.3h-2.7c-0.9-0.9-1.3-2.4-1.3-4.5c0-0.6,0-1.6,0.1-2.9c0.1-1.4,0.1-2.4,0.1-3c0-2.9-0.6-5-1.9-6.3
			c-1.7-1.9-4.8-2.8-9.2-2.8h-18.9v19.5h-2.7V0.5h21.7c9.6,0,14.3,3.8,14.3,11.3c0,2.6-0.8,4.9-2.4,6.9c-1.6,1.9-3.7,3.2-6.3,3.8
			v0.1c3.4,0.5,5.7,1.8,6.8,4.2c0.8,1.6,1.1,4.1,1.1,7.6v1.5C262.1,39.4,262.5,41.9,263.3,43.3z M260.1,11.6c0-5.9-3.8-8.8-11.4-8.8
			h-19.2v18.6h18.5C256.1,21.4,260.1,18.1,260.1,11.6z M308.6,43.3h-3.8l-21.9-23.4l-10.8,8.7v14.8h-2.7V0.5h2.7v24.6l30.6-24.6h4.4
			l-22,17.7L308.6,43.3z M345.7,43.3h-33.9V0.5h33.5v2.3h-30.8v17.1h29.6v2.3h-29.6V41h31.2V43.3z M385.1,2.7h-17.1v40.6h-2.7V2.7
			h-17.1V0.5h37V2.7z"/>
		<path class="st0" d="M176.5,91.1h-2.7V52l0,0l-20.7,39.1h-2.7L129.8,52l0,0v39.1H127V48.2h4l20.7,39.4l20.8-39.4h3.9V91.1z
			 M222,75.2c0,11.2-6.3,16.8-18.8,16.8c-12.5,0-18.8-5.6-18.8-16.8v-27h2.7v26.9c0,5.2,1.4,8.9,4.2,11.3c2.6,2.2,6.5,3.3,11.8,3.3
			c5.3,0,9.2-1.1,11.8-3.3c2.8-2.4,4.2-6.1,4.2-11.3V48.2h2.7V75.2z M264.4,79.9c0,4.3-1.8,7.5-5.5,9.7c-3,1.7-6.8,2.5-11.5,2.5
			c-12.9,0-19.3-5-19.3-15.1h2.7c0.1,8.5,5.5,12.8,16.3,12.8c3.8,0,7-0.6,9.5-1.9c3.2-1.7,4.8-4.2,4.8-7.7c0-4-2.7-6.7-8.3-8.3
			c-5.1-1.1-10.3-2.2-15.4-3.4c-5.5-1.9-8.3-5.2-8.3-10.1c0-3.9,1.8-6.9,5.4-8.8c2.8-1.6,6.4-2.3,10.7-2.3
			c11.6,0,17.5,4.4,17.8,13.1h-2.7c-0.5-7.2-5.2-10.7-14.3-10.7c-9.2,0-13.7,2.9-13.7,8.8c0,4,2.7,6.8,8.3,8.2
			c5.1,1,10.2,2.1,15.4,3.2C261.6,71.6,264.4,75,264.4,79.9z M271.8,91.1h-2.7V48.2h2.7V91.1z M319.3,74.8
			c-0.6,5.2-2.9,9.4-7.1,12.6c-3.9,3.1-8.5,4.6-13.8,4.6c-6.8,0-12.2-2-16.4-6.2c-4.1-4.1-6.2-9.5-6.2-16.3c0-6.5,2.1-11.9,6.4-16.1
			c4.3-4.2,9.7-6.3,16.2-6.3c5.1,0,9.4,1.2,12.8,3.5c3.8,2.5,6.2,6.1,7.3,10.9h-2.7c-1-3.9-3.1-6.9-6.5-9.1c-3.1-2-6.7-3-10.9-3
			c-5.7,0-10.5,1.9-14.2,5.7c-3.8,3.8-5.6,8.6-5.6,14.3c0,6,1.8,10.8,5.5,14.5c3.6,3.7,8.4,5.6,14.4,5.6c4.7,0,8.7-1.3,12-4
			c3.3-2.7,5.3-6.3,6.1-10.9H319.3z"/>
		<path class="st0" d="M97.1,45.4c-0.6,12.6-5.9,23.9-14.2,32.2C74.2,86.5,62,91.9,48.6,91.9c-13.4,0-25.6-5.5-34.4-14.3
			C5.9,69.3,0.6,57.9,0,45.4h2.4C3,57.3,8.1,68,15.9,75.9c8.4,8.4,19.9,13.6,32.7,13.6s24.3-5.2,32.7-13.6
			C89,68,94.1,57.3,94.7,45.4H97.1z"/>
		<path class="st1" d="M48.6,40.5L71.2,1.1L71.8,0l1,0.6C80.4,5,86.5,11.2,90.7,18.5s6.5,15.7,6.5,24.5c0,0.8,0,1.6-0.1,2.4h-2.5
			c0.1-0.8,0.1-1.6,0.1-2.4c0-8.3-2.2-16.3-6.2-23.2c-3.8-6.6-9.2-12.3-15.8-16.4C65,16.8,57.3,30.2,49.6,43.6h-2.1L24.4,3.4
			c-6.6,4.1-12,9.8-15.8,16.4c-4,6.9-6.2,14.9-6.2,23.2c0,0.8,0,1.6,0.1,2.4H0c-0.1-0.8-0.1-1.6-0.1-2.4c0-8.8,2.3-17.1,6.5-24.5
			S16.7,5,24.2,0.6L25.3,0l0.6,1.1L48.6,40.5z"/>
	</g>
</g>
</svg>
